<?xml version="1.0" encoding="UTF-8"?>
<svg width="30px" height="30px" viewBox="0 0 30 30" version="1.1" xmlns="http://www.w3.org/2000/svg" xmlns:xlink="http://www.w3.org/1999/xlink">
    <!-- Generator: Sketch 42 (36781) - http://www.bohemiancoding.com/sketch -->
    <title>logo-small</title>
    <desc>Created with Sketch.</desc>
    <defs></defs>
    <g id="Page-1" stroke="none" stroke-width="1" fill="none" fill-rule="evenodd">
        <g id="logo-small" stroke="#000000" stroke-width="2">
            <g id="Group" transform="translate(5.000000, 3.000000)">
                <path d="M10.4474605,0.0135970181 C10.4474605,0.0135970181 6.99153262,-0.0228605541 4.74908992,1.9471364 C4.46354498,2.19798904 3.54319924,3.12973534 3.42105263,5 C3.2275498,6.94549106 3.50920548,8.76781177 3.15789474,9.73684211 C2.71220167,11.8516381 0,11.8421053 0,11.8421053" id="Path"></path>
                <path d="M20.7106184,0.0135970181 C20.7106184,0.0135970181 17.2546905,-0.0228605541 15.0122478,1.9471364 C14.7267029,2.19798904 13.8063571,3.12973534 13.6842105,5 C13.4907077,6.94549106 13.7723634,8.76781177 13.4210526,9.73684211 C12.9753596,11.8516381 10.2631579,11.8421053 10.2631579,11.8421053" id="Path-Copy" transform="translate(15.486888, 5.927828) scale(-1, 1) translate(-15.486888, -5.927828) "></path>
                <path d="M10.4474605,13.1714918 C10.4474605,13.1714918 6.99153262,13.1350342 4.74908992,15.1050311 C4.46354498,15.3558838 3.54319924,16.2876301 3.42105263,18.1578947 C3.2275498,20.1033858 3.50920548,21.9257065 3.15789474,22.8947368 C2.71220167,25.0095328 0,25 0,25" id="Path-Copy-3" transform="translate(5.223730, 19.085723) scale(1, -1) translate(-5.223730, -19.085723) "></path>
                <path d="M20.7106184,13.1714918 C20.7106184,13.1714918 17.2546905,13.1350342 15.0122478,15.1050311 C14.7267029,15.3558838 13.8063571,16.2876301 13.6842105,18.1578947 C13.4907077,20.1033858 13.7723634,21.9257065 13.4210526,22.8947368 C12.9753596,25.0095328 10.2631579,25 10.2631579,25" id="Path-Copy-2" transform="translate(15.486888, 19.085723) scale(-1, -1) translate(-15.486888, -19.085723) "></path>
                <path d="M9.56918477,24.2523682 C9.56918477,24.2523682 11.5338423,21.2754351 11.3003842,17.6111214 C11.0669261,13.9468077 9.33133371,10.186642 9.33133371,7.36198351 C9.33133371,1.60246812 11.6458315,0.218607877 11.6458315,0.218607877" id="Path-2"></path>
            </g>
        </g>
    </g>
</svg>